/* XPM */
static char * scratch[] = {
"32 32 3 1",
" 	c black",
".	c #AF9790",
"X	c white",
"    ............................",
" ...............................",
" ...............................",
" ...............................",
".........XXXXXXXXXXXXX..........",
".........X......................",
".........X......................",
".........X......................",
".........X......................",
".........X......................",
".........XXXXXXXXXXXXX..........",
"...............X................",
"...............X................",
"...............X................",
"...............X................",
"......XXXXXXXXXXXXXXXXXXX.......",
"................................",
"................................",
"...............X................",
".............XX.XX..............",
"............X.....X.............",
"............X.....X.............",
"...........X.......X............",
"............X.....X.............",
"............X.....X.............",
".............XX.XX..............",
"...............X................",
"................................",
"................................",
"................................",
"................................",
"................................"};
