/* XPM */
static char * scratch[] = {
"32 32 2 1",
" 	c black",
".	c #AD8762",
"    ............................",
" ...............................",
" ...............................",
" ...............................",
".......... ......... ...........",
".......... ......... ...........",
".......... ......... ...........",
".......... ......... ...........",
"..........           ...........",
".......... ......... ...........",
".......... ......... ...........",
".......... ......... ...........",
"..........           ...........",
"................................",
"................................",
"................................",
"......                   .......",
"............... ................",
"............... ................",
"............... ................",
"............        ............",
"................... ............",
"................... ............",
"................... ............",
"................... ............",
"................... ............",
"................................",
"................................",
"................................",
"................................",
"................................",
"................................"};
