/* XPM */
static char * scratch[] = {
"32 32 2 1",
" 	c #202020",
".	c #FF0000",
"            .... ....           ",
"          ..         ..         ",
"         .             .        ",
"        .               .       ",
"        .               .       ",
"       .                 .      ",
"       .                 .      ",
"       .                 .      ",
".      .                 .      ",
".     .                   .     ",
".      .                 .      ",
".      .                 .      ",
".      .                 .      ",
".      .                 .      ",
".       .               .       ",
".       .               .       ",
".        .             .        ",
".         ..         ..         ",
".           .... ....           ",
".               .               ",
"                .               ",
"               . .              ",
"             ..   ..            ",
"           ..       ..          ",
"        ...           ...       ",
"   .....                 .....  ",
"...                           ..",
"                                ",
"                                ",
"                                ",
"                                ",
"                                "};
