/* XPM */
static char * scratch[] = {
"32 32 3 1",
" 	c black",
".	c #5080F0",
"X	c red",
"    ............................",
" ...............................",
" ...............................",
" ...............................",
"................................",
"................................",
"................................",
".........X...........X..........",
".........X...........X..........",
".........X...........X..........",
".........X...........X..........",
".........X...........X..........",
".........X...........X..........",
".........X...........XXX........",
".........X...........X..........",
".........X...........X..........",
".........XXXXXXXXXXX.X..........",
".....................X..........",
".....................X..........",
"................................",
"..........XXXXXXXXXXX...........",
"..........X.........X...........",
"..........X.........X...........",
"..........X.........X...........",
"..........X.........X...........",
"..........XXXXXXXXXXX...........",
"................................",
"................................",
"................................",
"................................",
"................................",
"................................"};
