/* XPM */
static char * scratch[] = {
"32 32 3 1",
" 	c black",
".	c #A0A0A0",
"X	c #202020",
"    ............................",
" ...............................",
" ...............................",
" ...............................",
"................................",
"............X........X..........",
"............X........X..........",
"...........X.........X..........",
"...........X.........X..........",
"...........X.........X..........",
"..........X.X........X..........",
"..........X.X........X..........",
"..........X..X.XXXXXXX..........",
".........X...X.......X..........",
".........X...X.......X..........",
".........X....X......X..........",
"........X.....X......X..........",
"........X......X.....X..........",
"........X......X.....X..........",
".......X........X....X..........",
".......X........X....X..........",
".....................X..........",
".....................X..........",
".....................X..........",
".....................X..........",
"................................",
"................................",
"................................",
"................................",
"................................",
"................................",
"................................"};
